<svg id="OutlineExpand" enable-background="new 0 0 64 64" height="512" viewBox="0 0 64 64" width="512" xmlns="http://www.w3.org/2000/svg"><path d="m3 62h58c.553 0 1-.448 1-1v-58c0-.552-.447-1-1-1h-58c-.553 0-1 .448-1 1v58c0 .552.447 1 1 1zm1-58h56v56h-56z"/><path d="m8 27h23c.412 0 .782-.253.932-.638l7-18c.12-.308.08-.654-.106-.927s-.496-.435-.826-.435h-30c-.553 0-1 .448-1 1v18c0 .552.447 1 1 1zm1-18h27.538l-6.222 16h-21.316z"/><path d="m56 7h-14c-.412 0-.782.253-.932.638l-7 18c-.12.308-.08.654.106.927s.496.435.826.435h21c.553 0 1-.448 1-1v-18c0-.552-.447-1-1-1zm-1 18h-18.538l6.222-16h12.316z"/><path d="m8 45h16c.553 0 1-.448 1-1v-14c0-.552-.447-1-1-1h-16c-.553 0-1 .448-1 1v14c0 .552.447 1 1 1zm1-14h14v12h-14z"/><path d="m56 29h-28c-.553 0-1 .448-1 1v14c0 .552.447 1 1 1h28c.553 0 1-.448 1-1v-14c0-.552-.447-1-1-1zm-1 14h-26v-12h26z"/><path d="m56 47h-48c-.553 0-1 .448-1 1v8c0 .552.447 1 1 1h48c.553 0 1-.448 1-1v-8c0-.552-.447-1-1-1zm-1 8h-46v-6h46z"/></svg>