<svg height="496pt" viewBox="0 0 496 496" width="496pt" xmlns="http://www.w3.org/2000/svg"><path d="m416 104v-16c-4.40625 0-8-3.59375-8-8h-16c0 13.230469 10.769531 24 24 24zm0 0"/><path d="m360 96h-16c0 4.40625-3.59375 8-8 8v16c13.230469 0 24-10.769531 24-24zm0 0"/><path d="m368 0h16v32h-16zm0 0"/><path d="m425.34375 27.542969 16-24.003907 13.316406 8.875-16.003906 24.003907zm0 0"/><path d="m297.359375 12.4375 13.3125-8.875 16 24.003906-13.3125 8.875zm0 0"/><path d="m470.070312 137.726562c5.335938-6.039062 8.953126-13.519531 9.746094-21.824218 1.070313-11.261719-2.65625-22.488282-10.214844-30.804688-6.34375-6.984375-14.96875-11.464844-24.21875-12.730468-6.582031-19.078126-24.757812-32.367188-45.382812-32.367188-8.464844 0-16.664062 2.257812-24 6.566406-7.335938-4.308594-15.535156-6.566406-24-6.566406-20.625 0-38.800781 13.289062-45.375 32.367188-9.25 1.265624-17.871094 5.746093-24.21875 12.730468-7.566406 8.316406-11.285156 19.542969-10.214844 30.8125 1.929688 20.234375 20.015625 36.089844 41.183594 36.089844h14.625v26.070312l-80.03125-46.6875c-3.265625-1.902343-6.785156-3.335937-10.167969-4.175781l-45.800781-13.222656v-14.304687c9.792969-8.792969 16-21.503907 16-35.679688v-16c0-26.472656-21.527344-48-48-48-23.824219 0-43.59375 17.457031-47.3125 40.238281-70.597656 46.042969-112.6875 123.386719-112.6875 207.761719 0 136.742188 111.257812 248 248 248s248-111.257812 248-248c0-38.265625-9.015625-76.222656-25.929688-110.273438zm-181.957031-23.34375c-.65625-6.878906 1.519531-13.460937 6.125-18.527343 4.546875-5 11.019531-7.855469 17-7.902344l8.066407.320313 1.335937-6.617188c2.992187-14.863281 16.183594-25.65625 31.359375-25.65625 6.855469 0 13.496094 2.273438 19.175781 6.558594l4.824219 3.640625 4.824219-3.640625c5.679687-4.285156 12.320312-6.558594 19.175781-6.558594 15.175781 0 28.367188 10.792969 31.359375 25.664062l1.335937 6.617188 6.746094-.191406.972656-.089844c6.59375.113281 12.898438 2.96875 17.347657 7.855469 4.605469 5.066406 6.78125 11.648437 6.125 18.519531-1.160157 12.128906-12.253907 21.625-25.261719 21.625h-17.785156c-17.144532 0-33.265625 7.039062-44.839844 19.222656-11.574219-12.183594-27.703125-19.222656-44.839844-19.222656h-17.785156c-13.007812 0-24.101562-9.496094-25.261719-21.617188zm114.285157 261.617188-26.398438 47.527344-26.398438-47.527344zm5.601562-16h-24v-72h-16v72h-24v-206.105469c9.542969 2.777344 17.96875 8.609375 24 16.769531v101.335938h16v-101.328125c6.03125-8.167969 14.457031-13.992187 24-16.769531zm-80-133.679688-58.664062-33 13.753906-22.929687 44.910156 26.203125zm-94.367188-83.664062c2.199219.550781 4.320313 1.40625 6.269532 2.550781l29.363281 17.128907-13.882813 23.144531-31.382812-17.65625v-7.824219h-16v88h-96v-88h-16v40h-24v-39.015625c0-11.03125 7.480469-20.609375 17.863281-23.207031l43.535157-9.066406 26.601562 26.601562 26.320312-26.320312zm-81.632812 153.34375v163.121094c-14.152344-6.457032-27.535156-14.289063-40-23.335938v-171.785156h96v212.480469c-13.777344-2.410157-27.167969-5.96875-40-10.703125v-169.777344zm-80-80h24v100c0 6.617188-5.382812 12-12 12s-12-5.382812-12-12zm104-99.3125-16 16-16-16v-7.488281c5.015625 1.785156 10.382812 2.800781 16 2.800781s10.984375-1.023438 16-2.800781zm-48-68.6875c0-17.648438 14.351562-32 32-32s32 14.351562 32 32v16c0 17.648438-14.351562 32-32 32s-32-14.351562-32-32zm-112 200c0-75.128906 35.625-144.34375 96-187.984375v3.984375c0 14.167969 6.207031 26.878906 16 35.679688v13.816406l-41.695312 8.679687c-17.839844 4.464844-30.304688 20.417969-30.304688 38.808594v155.015625c0 15.441406 12.558594 28 28 28 4.3125 0 8.351562-1.0625 12-2.808594v81.855469c-48.960938-42.566406-80-105.230469-80-175.046875zm208 230.761719v-292.585938l104 58.496094v125.390625l41.816406 75.265625c-35.433594 21.960937-77.160156 34.671875-121.816406 34.671875-8.105469 0-16.113281-.425781-24-1.238281zm166-47.488281 34-61.203126v-218.070312h14.625c6.605469 0 12.839844-1.6875 18.453125-4.441406 14.960937 31.144531 22.921875 65.648437 22.921875 100.441406 0 74.464844-35.296875 140.792969-90 183.273438zm0 0"/></svg>